# xmcd
#
# Track frame offsets: 
#        150
#        29694
#        47034
#        53933
#        76713
#        92052
#        107477
#        113492
#        135929
#        138950
#        161124
#        165900
#        184748
#
# Disc length: 2908 seconds
#
# Revision: 0
# Processed by: cddbd v1.5.2PL0 Copyright (c) Steve Scherf et al.
# Submitted via: ExactAudioCopy v1.0b3
#
DISCID=9a0b5a0d
DTITLE=BARBARA BELLONI featuring FOUR FRIED FISH - Photographs and Memor
DTITLE=ies - Tribute To Jim Croce
DYEAR=2012
DGENRE=Folk/Rock
TTITLE0=A long time ago
TTITLE1=I got a name
TTITLE2=Memory (1)
TTITLE3=You don't mess around with Jim
TTITLE4=Photographs and memories
TTITLE5=Five short minutes
TTITLE6=Memory (2)
TTITLE7=Operator
TTITLE8=Memory (3, Salon and Saloon)
TTITLE9=I remember her
TTITLE10=Memory (4)
TTITLE11=Speedball tuker
TTITLE12=Time in a bottle
EXTD=
EXTT0=
EXTT1=
EXTT2=
EXTT3=
EXTT4=
EXTT5=
EXTT6=
EXTT7=
EXTT8=
EXTT9=
EXTT10=
EXTT11=
EXTT12=
PLAYORDER=
